<mxfile host="app.diagrams.net" modified="2023-05-11T09:05:30.895Z" agent="Mozilla/5.0 (Windows NT 10.0; Win64; x64) AppleWebKit/537.36 (KHTML, like Gecko) Chrome/113.0.0.0 Safari/537.36" etag="DA1C7iQOA1l9NqAeGFK7" version="21.2.9" type="device">
  <diagram name="第 1 页" id="EqE4Cj1ZK6s9i0oh_z64">
    <mxGraphModel dx="1834" dy="764" grid="0" gridSize="10" guides="1" tooltips="1" connect="1" arrows="1" fold="1" page="0" pageScale="1" pageWidth="827" pageHeight="1169" math="0" shadow="0">
      <root>
        <mxCell id="0" />
        <mxCell id="1" parent="0" />
        <mxCell id="EwODa2tOJ3Cmv7Ll78O9-3" value="" style="edgeStyle=orthogonalEdgeStyle;rounded=0;orthogonalLoop=1;jettySize=auto;html=1;" edge="1" parent="1" source="EwODa2tOJ3Cmv7Ll78O9-1" target="EwODa2tOJ3Cmv7Ll78O9-2">
          <mxGeometry relative="1" as="geometry" />
        </mxCell>
        <mxCell id="EwODa2tOJ3Cmv7Ll78O9-1" value="加载" style="rounded=0;whiteSpace=wrap;html=1;fillColor=#dae8fc;strokeColor=#6c8ebf;" vertex="1" parent="1">
          <mxGeometry x="-89" y="241" width="120" height="60" as="geometry" />
        </mxCell>
        <mxCell id="EwODa2tOJ3Cmv7Ll78O9-5" value="" style="edgeStyle=orthogonalEdgeStyle;rounded=0;orthogonalLoop=1;jettySize=auto;html=1;" edge="1" parent="1" source="EwODa2tOJ3Cmv7Ll78O9-2" target="EwODa2tOJ3Cmv7Ll78O9-4">
          <mxGeometry relative="1" as="geometry" />
        </mxCell>
        <mxCell id="EwODa2tOJ3Cmv7Ll78O9-2" value="链接" style="rounded=0;whiteSpace=wrap;html=1;fillColor=#d5e8d4;strokeColor=#82b366;" vertex="1" parent="1">
          <mxGeometry x="111" y="241" width="120" height="60" as="geometry" />
        </mxCell>
        <mxCell id="EwODa2tOJ3Cmv7Ll78O9-13" value="" style="edgeStyle=orthogonalEdgeStyle;rounded=0;orthogonalLoop=1;jettySize=auto;html=1;" edge="1" parent="1" source="EwODa2tOJ3Cmv7Ll78O9-4" target="EwODa2tOJ3Cmv7Ll78O9-12">
          <mxGeometry relative="1" as="geometry" />
        </mxCell>
        <mxCell id="EwODa2tOJ3Cmv7Ll78O9-4" value="初始化" style="rounded=0;whiteSpace=wrap;html=1;fillColor=#ffe6cc;strokeColor=#d79b00;" vertex="1" parent="1">
          <mxGeometry x="311" y="241" width="120" height="60" as="geometry" />
        </mxCell>
        <mxCell id="EwODa2tOJ3Cmv7Ll78O9-6" value="" style="html=1;shadow=0;dashed=0;align=center;verticalAlign=middle;shape=mxgraph.arrows2.arrow;dy=0.6;dx=40;direction=south;notch=0;" vertex="1" parent="1">
          <mxGeometry x="136" y="336" width="70" height="100" as="geometry" />
        </mxCell>
        <mxCell id="EwODa2tOJ3Cmv7Ll78O9-11" value="" style="edgeStyle=orthogonalEdgeStyle;rounded=0;orthogonalLoop=1;jettySize=auto;html=1;" edge="1" parent="1" source="EwODa2tOJ3Cmv7Ll78O9-7" target="EwODa2tOJ3Cmv7Ll78O9-9">
          <mxGeometry relative="1" as="geometry" />
        </mxCell>
        <mxCell id="EwODa2tOJ3Cmv7Ll78O9-7" value="准备" style="rounded=0;whiteSpace=wrap;html=1;fillColor=#d5e8d4;strokeColor=#82b366;" vertex="1" parent="1">
          <mxGeometry x="111" y="471" width="120" height="60" as="geometry" />
        </mxCell>
        <mxCell id="EwODa2tOJ3Cmv7Ll78O9-10" value="" style="edgeStyle=orthogonalEdgeStyle;rounded=0;orthogonalLoop=1;jettySize=auto;html=1;" edge="1" parent="1" source="EwODa2tOJ3Cmv7Ll78O9-8" target="EwODa2tOJ3Cmv7Ll78O9-7">
          <mxGeometry relative="1" as="geometry" />
        </mxCell>
        <mxCell id="EwODa2tOJ3Cmv7Ll78O9-8" value="验证" style="rounded=0;whiteSpace=wrap;html=1;fillColor=#d5e8d4;strokeColor=#82b366;" vertex="1" parent="1">
          <mxGeometry x="-89" y="471" width="120" height="60" as="geometry" />
        </mxCell>
        <mxCell id="EwODa2tOJ3Cmv7Ll78O9-9" value="解析" style="rounded=0;whiteSpace=wrap;html=1;fillColor=#d5e8d4;strokeColor=#82b366;" vertex="1" parent="1">
          <mxGeometry x="311" y="471" width="120" height="60" as="geometry" />
        </mxCell>
        <mxCell id="EwODa2tOJ3Cmv7Ll78O9-15" value="" style="edgeStyle=orthogonalEdgeStyle;rounded=0;orthogonalLoop=1;jettySize=auto;html=1;" edge="1" parent="1" source="EwODa2tOJ3Cmv7Ll78O9-12" target="EwODa2tOJ3Cmv7Ll78O9-14">
          <mxGeometry relative="1" as="geometry" />
        </mxCell>
        <mxCell id="EwODa2tOJ3Cmv7Ll78O9-12" value="使用" style="rounded=0;whiteSpace=wrap;html=1;fillColor=#fff2cc;strokeColor=#d6b656;" vertex="1" parent="1">
          <mxGeometry x="511" y="241" width="120" height="60" as="geometry" />
        </mxCell>
        <mxCell id="EwODa2tOJ3Cmv7Ll78O9-14" value="卸载" style="rounded=0;whiteSpace=wrap;html=1;fillColor=#f8cecc;strokeColor=#b85450;" vertex="1" parent="1">
          <mxGeometry x="511" y="381" width="120" height="60" as="geometry" />
        </mxCell>
      </root>
    </mxGraphModel>
  </diagram>
</mxfile>
